<svg width="62" height="62" viewBox="0 0 62 62" fill="none" xmlns="http://www.w3.org/2000/svg">
<path fill-rule="evenodd" clip-rule="evenodd" d="M30.9654 17.9886C23.9234 17.9886 18.2147 23.6973 18.2147 30.7393C18.2147 37.7814 23.9234 43.4901 30.9654 43.4901C38.0075 43.4901 43.7162 37.7814 43.7162 30.7393C43.7162 23.6973 38.0075 17.9886 30.9654 17.9886ZM47.6864 30.7393C47.6864 21.5046 40.2002 14.0184 30.9654 14.0184C21.7307 14.0184 14.2445 21.5046 14.2445 30.7393C14.2445 39.9741 21.7307 47.4603 30.9654 47.4603C40.2002 47.4603 47.6864 39.9741 47.6864 30.7393Z" fill="#0052FF"/>
<path fill-rule="evenodd" clip-rule="evenodd" d="M30.9761 25.6761C28.1739 25.6761 25.9023 27.9478 25.9023 30.75C25.9023 33.5522 28.1739 35.8239 30.9761 35.8239C33.7784 35.8239 36.05 33.5522 36.05 30.75C36.05 27.9478 33.7784 25.6761 30.9761 25.6761ZM40.0203 30.75C40.0203 25.7551 35.9711 21.7059 30.9761 21.7059C25.9812 21.7059 21.932 25.7551 21.932 30.75C21.932 35.7449 25.9812 39.7941 30.9761 39.7941C35.9711 39.7941 40.0203 35.7449 40.0203 30.75Z" fill="#0052FF"/>
<path fill-rule="evenodd" clip-rule="evenodd" d="M30.7501 3.97022C29.5712 3.97022 28.6155 4.9259 28.6155 6.10478C28.6155 7.28366 29.5712 8.23933 30.7501 8.23933C31.929 8.23933 32.8846 7.28366 32.8846 6.10478C32.8846 4.9259 31.929 3.97022 30.7501 3.97022ZM36.8549 6.10478C36.8549 2.7332 34.1217 -1.19472e-07 30.7501 -2.66848e-07C27.3785 -4.14225e-07 24.6453 2.7332 24.6453 6.10478C24.6453 9.47635 27.3785 12.2096 30.7501 12.2096C34.1217 12.2096 36.8549 9.47635 36.8549 6.10478Z" fill="#0052FF"/>
<path fill-rule="evenodd" clip-rule="evenodd" d="M30.7501 53.2606C29.5712 53.2606 28.6155 54.2163 28.6155 55.3952C28.6155 56.5741 29.5712 57.5297 30.7501 57.5297C31.929 57.5297 32.8846 56.5741 32.8846 55.3952C32.8846 54.2163 31.929 53.2606 30.7501 53.2606ZM36.8549 55.3952C36.8549 52.0236 34.1217 49.2904 30.7501 49.2904C27.3785 49.2904 24.6453 52.0236 24.6453 55.3952C24.6453 58.7668 27.3785 61.5 30.7501 61.5C34.1217 61.5 36.8549 58.7668 36.8549 55.3952Z" fill="#0052FF"/>
<path fill-rule="evenodd" clip-rule="evenodd" d="M11.8138 11.8139C10.9802 12.6475 10.9802 13.999 11.8138 14.8326C12.6474 15.6662 13.9989 15.6662 14.8325 14.8326C15.6661 13.999 15.6661 12.6475 14.8325 11.8139C13.9989 10.9803 12.6474 10.9803 11.8138 11.8139ZM17.6399 9.00649C15.2558 6.62242 11.3905 6.62242 9.00639 9.00649C6.62233 11.3906 6.62233 15.2559 9.00639 17.6399C11.3905 20.024 15.2558 20.024 17.6399 17.6399C20.0239 15.2559 20.0239 11.3906 17.6399 9.00649Z" fill="#0052FF"/>
<path fill-rule="evenodd" clip-rule="evenodd" d="M46.6675 46.6674C45.8339 47.501 45.8339 48.8526 46.6675 49.6862C47.5011 50.5197 48.8526 50.5197 49.6862 49.6862C50.5198 48.8526 50.5198 47.501 49.6862 46.6674C48.8526 45.8338 47.5011 45.8338 46.6675 46.6674ZM52.4936 43.8601C50.1095 41.476 46.2442 41.476 43.8602 43.8601C41.4761 46.2441 41.4761 50.1095 43.8602 52.4935C46.2442 54.8776 50.1095 54.8776 52.4936 52.4935C54.8777 50.1095 54.8777 46.2441 52.4936 43.8601Z" fill="#0052FF"/>
<path fill-rule="evenodd" clip-rule="evenodd" d="M49.6862 11.8138C48.8526 10.9802 47.5011 10.9802 46.6675 11.8138C45.8339 12.6474 45.8339 13.9989 46.6675 14.8325C47.5011 15.6661 48.8526 15.6661 49.6862 14.8325C50.5198 13.9989 50.5198 12.6474 49.6862 11.8138ZM52.4936 17.6399C54.8776 15.2558 54.8776 11.3905 52.4936 9.00645C50.1095 6.62239 46.2442 6.62239 43.8601 9.00645C41.476 11.3905 41.476 15.2558 43.8601 17.6399C46.2442 20.024 50.1095 20.024 52.4936 17.6399Z" fill="#0052FF"/>
<path fill-rule="evenodd" clip-rule="evenodd" d="M14.8326 46.6675C13.999 45.8339 12.6474 45.8339 11.8138 46.6675C10.9803 47.5011 10.9803 48.8526 11.8138 49.6862C12.6474 50.5198 13.999 50.5198 14.8326 49.6862C15.6662 48.8526 15.6662 47.5011 14.8326 46.6675ZM17.6399 52.4935C20.024 50.1095 20.024 46.2442 17.6399 43.8601C15.2559 41.476 11.3905 41.476 9.00648 43.8601C6.62241 46.2442 6.62241 50.1095 9.00647 52.4935C11.3905 54.8776 15.2559 54.8776 17.6399 52.4935Z" fill="#0052FF"/>
<path fill-rule="evenodd" clip-rule="evenodd" d="M57.5298 30.75C57.5298 29.5711 56.5741 28.6154 55.3952 28.6154C54.2163 28.6154 53.2607 29.5711 53.2607 30.75C53.2607 31.9288 54.2163 32.8845 55.3952 32.8845C56.5741 32.8845 57.5298 31.9288 57.5298 30.75ZM55.3952 36.8547C58.7668 36.8547 61.5 34.1215 61.5 30.75C61.5 27.3784 58.7668 24.6452 55.3952 24.6452C52.0236 24.6452 49.2904 27.3784 49.2904 30.75C49.2904 34.1215 52.0236 36.8547 55.3952 36.8547Z" fill="#0052FF"/>
<path fill-rule="evenodd" clip-rule="evenodd" d="M8.23937 30.75C8.23937 29.5711 7.2837 28.6154 6.10482 28.6154C4.92593 28.6154 3.97026 29.5711 3.97026 30.75C3.97026 31.9288 4.92593 32.8845 6.10482 32.8845C7.2837 32.8845 8.23937 31.9288 8.23937 30.75ZM6.10482 36.8547C9.47639 36.8547 12.2096 34.1215 12.2096 30.75C12.2096 27.3784 9.47639 24.6452 6.10482 24.6452C2.73324 24.6452 3.80217e-05 27.3784 3.7727e-05 30.75C3.74322e-05 34.1215 2.73324 36.8547 6.10482 36.8547Z" fill="#0052FF"/>
</svg>
