<svg width="106" height="106" viewBox="0 0 106 106" fill="none" xmlns="http://www.w3.org/2000/svg">
<rect width="106" height="106" rx="28" fill="white"/>
<path fill-rule="evenodd" clip-rule="evenodd" d="M52.9766 17.7797C37.4039 17.7797 24.7798 30.4038 24.7798 45.9764C24.7798 61.5491 37.4039 74.1732 52.9765 74.1732C68.5492 74.1732 81.1733 61.5491 81.1733 45.9764C81.1733 30.4038 68.5492 17.7797 52.9766 17.7797ZM89.953 45.9764C89.953 25.5549 73.3981 8.99997 52.9766 8.99997C32.555 8.99997 16.0001 25.5549 16.0001 45.9764C16.0001 66.3979 32.555 82.9529 52.9765 82.9529C73.3981 82.9529 89.953 66.3979 89.953 45.9764Z" fill="#0052FF"/>
<path fill-rule="evenodd" clip-rule="evenodd" d="M61.1376 38.5855H45.5867L45.5867 54.1364L61.1376 54.1364L61.1376 38.5855ZM45.5867 29.8058C40.7378 29.8058 36.807 33.7366 36.807 38.5855V54.1364C36.807 58.9853 40.7378 62.916 45.5867 62.916H61.1376C65.9865 62.916 69.9173 58.9853 69.9173 54.1364V38.5855C69.9173 33.7366 65.9865 29.8058 61.1376 29.8058H45.5867Z" fill="#0052FF"/>
<path fill-rule="evenodd" clip-rule="evenodd" d="M31.7327 91.7317C31.7327 89.0241 33.9276 86.8293 36.6351 86.8293L72.5863 86.8293C75.2938 86.8293 77.4887 89.0241 77.4887 91.7317C77.4887 94.4392 75.2938 96.6341 72.5863 96.6341L36.6351 96.6341C33.9276 96.6341 31.7327 94.4392 31.7327 91.7317Z" fill="#0052FF"/>
</svg>
