<svg width="106" height="106" viewBox="0 0 106 106" fill="none" xmlns="http://www.w3.org/2000/svg">
<path fill-rule="evenodd" clip-rule="evenodd" d="M53.7838 36.6923C44.5089 36.6923 36.9901 44.2111 36.9901 53.486C36.9901 62.7609 44.5089 70.2796 53.7838 70.2796C63.0587 70.2796 70.5774 62.7609 70.5774 53.486C70.5774 44.2111 63.0587 36.6923 53.7838 36.6923ZM75.8065 53.486C75.8065 41.3231 65.9466 31.4632 53.7838 31.4632C41.6209 31.4632 31.761 41.3231 31.761 53.486C31.761 65.6488 41.6209 75.5087 53.7838 75.5087C65.9466 75.5087 75.8065 65.6488 75.8065 53.486Z" fill="#0052FF"/>
<path fill-rule="evenodd" clip-rule="evenodd" d="M53.7978 46.8173C50.1071 46.8173 47.1151 49.8092 47.1151 53.5C47.1151 57.1907 50.1071 60.1827 53.7978 60.1827C57.4886 60.1827 60.4805 57.1907 60.4805 53.5C60.4805 49.8092 57.4886 46.8173 53.7978 46.8173ZM65.7096 53.5C65.7096 46.9213 60.3765 41.5882 53.7978 41.5882C47.2191 41.5882 41.8861 46.9213 41.8861 53.5C41.8861 60.0787 47.2191 65.4118 53.7978 65.4118C60.3765 65.4118 65.7096 60.0787 65.7096 53.5Z" fill="#0052FF"/>
<path fill-rule="evenodd" clip-rule="evenodd" d="M53.5001 18.2291C51.9474 18.2291 50.6887 19.4878 50.6887 21.0404C50.6887 22.5931 51.9474 23.8518 53.5001 23.8518C55.0528 23.8518 56.3114 22.5931 56.3114 21.0404C56.3114 19.4878 55.0528 18.2291 53.5001 18.2291ZM61.5405 21.0404C61.5405 16.5998 57.9407 13 53.5001 13C49.0595 13 45.4596 16.5998 45.4596 21.0404C45.4596 25.4811 49.0595 29.0809 53.5001 29.0809C57.9407 29.0809 61.5405 25.4811 61.5405 21.0404Z" fill="#0052FF"/>
<path fill-rule="evenodd" clip-rule="evenodd" d="M53.5001 83.1482C51.9474 83.1482 50.6887 84.4069 50.6887 85.9595C50.6887 87.5122 51.9474 88.7709 53.5001 88.7709C55.0528 88.7709 56.3114 87.5122 56.3114 85.9595C56.3114 84.4069 55.0528 83.1482 53.5001 83.1482ZM61.5405 85.9595C61.5405 81.5189 57.9407 77.9191 53.5001 77.9191C49.0595 77.9191 45.4596 81.5189 45.4596 85.9595C45.4596 90.4002 49.0595 94 53.5001 94C57.9407 94 61.5405 90.4002 61.5405 85.9595Z" fill="#0052FF"/>
<path fill-rule="evenodd" clip-rule="evenodd" d="M28.5596 28.5597C27.4616 29.6576 27.4616 31.4377 28.5596 32.5356C29.6575 33.6335 31.4375 33.6335 32.5354 32.5356C33.6333 31.4377 33.6333 29.6576 32.5354 28.5597C31.4375 27.4618 29.6575 27.4618 28.5596 28.5597ZM36.2329 24.8622C33.0929 21.7222 28.002 21.7222 24.862 24.8622C21.722 28.0022 21.722 33.0931 24.862 36.2331C28.002 39.3731 33.0929 39.3731 36.2329 36.2331C39.3729 33.0931 39.3729 28.0022 36.2329 24.8622Z" fill="#0052FF"/>
<path fill-rule="evenodd" clip-rule="evenodd" d="M74.4646 74.4645C73.3667 75.5624 73.3667 77.3424 74.4646 78.4403C75.5625 79.5382 77.3425 79.5382 78.4405 78.4403C79.5384 77.3424 79.5384 75.5624 78.4404 74.4645C77.3425 73.3665 75.5625 73.3665 74.4646 74.4645ZM82.138 70.7669C78.998 67.6269 73.9071 67.6269 70.7671 70.7669C67.6271 73.9069 67.6271 78.9979 70.7671 82.1378C73.9071 85.2778 78.998 85.2778 82.138 82.1378C85.278 78.9979 85.278 73.9069 82.138 70.7669Z" fill="#0052FF"/>
<path fill-rule="evenodd" clip-rule="evenodd" d="M78.4404 28.5597C77.3425 27.4618 75.5624 27.4618 74.4645 28.5597C73.3666 29.6576 73.3666 31.4377 74.4645 32.5356C75.5624 33.6335 77.3425 33.6335 78.4404 32.5356C79.5383 31.4377 79.5383 29.6576 78.4404 28.5597ZM82.1379 36.2331C85.2779 33.0931 85.2779 28.0022 82.1379 24.8622C78.9979 21.7222 73.907 21.7222 70.767 24.8622C67.627 28.0022 67.627 33.0931 70.767 36.2331C73.907 39.3731 78.9979 39.3731 82.1379 36.2331Z" fill="#0052FF"/>
<path fill-rule="evenodd" clip-rule="evenodd" d="M32.5356 74.4645C31.4377 73.3666 29.6576 73.3666 28.5597 74.4645C27.4618 75.5624 27.4618 77.3425 28.5597 78.4404C29.6576 79.5383 31.4377 79.5383 32.5356 78.4404C33.6335 77.3425 33.6335 75.5624 32.5356 74.4645ZM36.2331 82.1379C39.3731 78.9979 39.3731 73.907 36.2331 70.767C33.0931 67.627 28.0022 67.627 24.8622 70.767C21.7222 73.907 21.7222 78.9979 24.8622 82.1379C28.0022 85.2779 33.0931 85.2779 36.2331 82.1379Z" fill="#0052FF"/>
<path fill-rule="evenodd" clip-rule="evenodd" d="M88.7709 53.5C88.7709 51.9473 87.5122 50.6886 85.9596 50.6886C84.4069 50.6886 83.1482 51.9473 83.1482 53.5C83.1482 55.0526 84.4069 56.3113 85.9596 56.3113C87.5122 56.3113 88.7709 55.0526 88.7709 53.5ZM85.9596 61.5404C90.4002 61.5404 94 57.9406 94 53.5C94 49.0593 90.4002 45.4595 85.9596 45.4595C81.5189 45.4595 77.9191 49.0593 77.9191 53.5C77.9191 57.9406 81.5189 61.5404 85.9596 61.5404Z" fill="#0052FF"/>
<path fill-rule="evenodd" clip-rule="evenodd" d="M23.8519 53.5C23.8519 51.9473 22.5932 50.6886 21.0405 50.6886C19.4878 50.6886 18.2291 51.9473 18.2291 53.5C18.2291 55.0526 19.4878 56.3113 21.0405 56.3113C22.5932 56.3113 23.8519 55.0526 23.8519 53.5ZM21.0405 61.5404C25.4811 61.5404 29.0809 57.9406 29.0809 53.5C29.0809 49.0593 25.4811 45.4595 21.0405 45.4595C16.5999 45.4595 13 49.0593 13 53.5C13 57.9406 16.5999 61.5404 21.0405 61.5404Z" fill="#0052FF"/>
</svg>
