<svg width="333" height="88" viewBox="0 0 333 88" fill="none" xmlns="http://www.w3.org/2000/svg">
<path fill-rule="evenodd" clip-rule="evenodd" d="M8.77978 37.2447C8.77978 21.6721 21.4039 9.04796 36.9766 9.04796C52.5492 9.04796 65.1733 21.6721 65.1733 37.2447C65.1733 52.8174 52.5492 65.4415 36.9765 65.4415C21.4039 65.4415 8.77978 52.8174 8.77978 37.2447ZM36.9766 0.268278C57.3981 0.268279 73.953 16.8232 73.953 37.2447C73.953 57.6663 57.3981 74.2212 36.9765 74.2212C16.555 74.2212 9.66732e-05 57.6663 9.75658e-05 37.2447C9.84585e-05 16.8232 16.555 0.268278 36.9766 0.268278ZM184.244 15.6293H193.918V36.4156H194.376C195.204 34.4111 196.402 32.7552 197.971 31.4478C199.54 30.1405 201.675 29.4869 204.377 29.4869C206.251 29.4869 207.95 29.8355 209.476 30.5327C211.044 31.23 212.373 32.2976 213.463 33.7356C214.596 35.1737 215.467 37.0039 216.077 39.2264C216.731 41.4488 217.058 44.0852 217.058 47.1356C217.058 50.186 216.731 52.8224 216.077 55.0449C215.467 57.2673 214.596 59.0976 213.463 60.5356C212.373 61.9736 211.044 63.0413 209.476 63.7385C207.95 64.4358 206.251 64.7844 204.377 64.7844C201.675 64.7844 199.54 64.1525 197.971 62.8888C196.402 61.5814 195.204 59.9037 194.376 57.8556H193.918V64H184.244V15.6293ZM200.194 57.2673C202.372 57.2673 204.05 56.6137 205.227 55.3063C206.403 53.9555 206.992 52.1034 206.992 49.7503V44.521C206.992 42.1678 206.403 40.3376 205.227 39.0303C204.05 37.6794 202.372 37.0039 200.194 37.0039C198.494 37.0039 197.012 37.4179 195.749 38.2459C194.529 39.0738 193.918 40.3812 193.918 42.1678V52.1034C193.918 53.8901 194.529 55.1974 195.749 56.0254C197.012 56.8533 198.494 57.2673 200.194 57.2673ZM126.512 64V26.4147H139.651V18.3747H103.569V26.4147H116.707V64H126.512ZM168.19 62.4966C169.41 63.4988 171.022 64 173.027 64H178.583V57.0059H174.857V42.2332C174.857 37.9626 173.55 34.7815 170.935 32.6898C168.364 30.5545 164.769 29.4869 160.15 29.4869C156.359 29.4869 153.243 30.1187 150.803 31.3825C148.406 32.6026 146.641 34.1714 145.508 36.0888L150.803 40.7951C151.718 39.5314 152.807 38.5073 154.071 37.723C155.335 36.9386 156.991 36.5464 159.039 36.5464C161.261 36.5464 162.83 37.0693 163.745 38.1152C164.704 39.1174 165.183 40.6208 165.183 42.6254V44.3249H159.758C154.79 44.3249 151.021 45.1746 148.449 46.8742C145.878 48.5737 144.593 51.1883 144.593 54.718C144.593 57.8992 145.573 60.3831 147.534 62.1697C149.539 63.9128 152.175 64.7844 155.444 64.7844C158.058 64.7844 160.259 64.2179 162.046 63.0849C163.876 61.9519 165.096 60.2741 165.706 58.0517H166.033C166.251 59.9691 166.97 61.4507 168.19 62.4966ZM163.418 57.202C162.242 58.0299 160.804 58.4439 159.104 58.4439C157.579 58.4439 156.359 58.1389 155.444 57.5288C154.528 56.9187 154.071 56.0254 154.071 54.8488V53.5415C154.071 50.8833 156.054 49.5542 160.019 49.5542H165.183V53.6068C165.183 55.1756 164.595 56.374 163.418 57.202ZM227.229 60.078C230.149 63.2156 234.442 64.7844 240.107 64.7844C243.723 64.7844 246.708 64.1961 249.062 63.0195C251.415 61.8429 253.245 60.4484 254.552 58.8361L249.323 53.1493C248.277 54.413 247.035 55.4371 245.597 56.2215C244.159 56.9623 242.438 57.3327 240.433 57.3327C237.819 57.3327 235.836 56.679 234.485 55.3717C233.134 54.0208 232.459 52.2559 232.459 50.0771V49.4888H255.533V46.6127C255.533 43.9981 255.141 41.6449 254.356 39.5532C253.615 37.4179 252.548 35.6095 251.153 34.1278C249.759 32.6462 248.059 31.5132 246.055 30.7288C244.05 29.9009 241.784 29.4869 239.257 29.4869C236.729 29.4869 234.442 29.9009 232.393 30.7288C230.389 31.5132 228.668 32.6898 227.229 34.2586C225.835 35.7838 224.746 37.6576 223.961 39.88C223.22 42.0589 222.85 44.521 222.85 47.2664C222.85 52.6699 224.31 56.9405 227.229 60.078ZM234.289 38.3766C235.553 37.0693 237.23 36.4156 239.322 36.4156C241.414 36.4156 243.048 37.0475 244.225 38.3112C245.445 39.575 246.055 41.3181 246.055 43.5405V44.0634H232.459V43.5405C232.459 41.3616 233.069 39.6404 234.289 38.3766ZM263.613 56.4829H271.391V37.7883H263.613V30.2713H281.065V39.8147H281.523C281.828 38.5945 282.242 37.4179 282.765 36.2849C283.331 35.1083 284.029 34.0843 284.857 33.2127C285.728 32.2976 286.774 31.5786 287.994 31.0557C289.214 30.5327 290.652 30.2713 292.308 30.2713H295.511V39.161H288.321C285.924 39.161 284.116 39.88 282.896 41.3181C281.675 42.7125 281.065 44.4338 281.065 46.482V56.4829H292.177V64H263.613V56.4829ZM322.874 57.8556H323.266V64H332.94V30.2713H323.266V52.4303C323.266 53.2582 323.092 53.9772 322.743 54.5873C322.395 55.1974 321.937 55.7203 321.37 56.1561C320.848 56.5483 320.216 56.8533 319.475 57.0712C318.778 57.2455 318.059 57.3327 317.318 57.3327C313.527 57.3327 311.631 55.1538 311.631 50.7961V30.2713H301.957V52.1034C301.957 54.1515 302.218 55.96 302.741 57.5288C303.308 59.0976 304.07 60.4267 305.029 61.5161C305.988 62.6055 307.142 63.4335 308.493 64C309.844 64.5229 311.326 64.7844 312.938 64.7844C315.64 64.7844 317.775 64.1089 319.344 62.758C320.956 61.4071 322.133 59.773 322.874 57.8556ZM45.1376 29.8538H29.5867L29.5867 45.4047L45.1376 45.4047L45.1376 29.8538ZM29.5867 21.0741C24.7378 21.0741 20.807 25.0049 20.807 29.8538V45.4047C20.807 50.2536 24.7378 54.1844 29.5867 54.1844H45.1376C49.9865 54.1844 53.9173 50.2536 53.9173 45.4047V29.8538C53.9173 25.0049 49.9865 21.0741 45.1376 21.0741H29.5867ZM20.635 78.0976C17.9275 78.0976 15.7326 80.2925 15.7326 83C15.7326 85.7075 17.9275 87.9024 20.635 87.9024L56.5862 87.9024C59.2937 87.9024 61.4886 85.7075 61.4886 83C61.4886 80.2924 59.2937 78.0976 56.5862 78.0976H20.635Z" fill="#0052FF"/>
</svg>
