<svg width="74" height="74" viewBox="0 0 74 74" fill="none" xmlns="http://www.w3.org/2000/svg">
<path d="M0 11.6343C0 5.20883 5.20883 0 11.6343 0H62.0494C68.4748 0 73.6836 5.20883 73.6836 11.6343V62.0494C73.6836 68.4748 68.4748 73.6836 62.0494 73.6836H11.6343C5.20883 73.6836 0 68.4748 0 62.0494V11.6343Z" fill="black"/>
<path fill-rule="evenodd" clip-rule="evenodd" d="M36.8407 11.8525C37.4839 11.8522 38.1008 12.1076 38.5557 12.5624L52.2738 26.2806C55.3257 29.3307 57.4051 33.2179 58.2479 37.4496C59.0908 41.6815 58.6596 46.0684 57.009 50.0552C55.3583 54.0421 52.5624 57.4499 48.9747 59.8475C45.3871 62.2451 41.1689 63.5248 36.8539 63.5248C32.5388 63.5248 28.3207 62.2451 24.7331 59.8475C21.1454 57.4499 18.3494 54.0421 16.6988 50.0552C15.0482 46.0684 14.617 41.6815 15.4599 37.4496C16.3026 33.2182 18.3812 29.3318 21.4328 26.2817L35.1264 12.5639C35.5808 12.1087 36.1975 11.8528 36.8407 11.8525ZM36.8433 17.7056L29.5763 24.9855C29.6537 26.7472 30.4973 29.0926 32.1443 31.0304C33.8266 33.0095 36.2169 34.418 39.2656 34.418C44.0727 34.418 47.6977 36.9432 50.3062 39.7301C51.6084 41.1213 52.7225 42.6499 53.6555 44.0709C53.9192 42.1937 53.8679 40.2755 53.4937 38.3965C52.8381 35.105 51.2211 32.0818 48.8472 29.7095L36.8433 17.7056ZM24.8627 29.7074L25.5117 29.0572C26.1423 30.8505 27.1377 32.6252 28.4507 34.1699C30.8889 37.0384 34.5581 39.2656 39.2656 39.2656C42.2147 39.2656 44.6492 40.7801 46.7671 43.0428C48.6867 45.0937 50.1307 47.5211 51.3198 49.5201C51.426 49.6987 51.5302 49.8738 51.6325 50.0449C50.8636 51.4083 49.9105 52.6572 48.8018 53.7569C47.87 52.3384 46.758 50.8135 45.4586 49.4253C42.8501 46.6384 39.2251 44.1132 34.418 44.1132C31.2879 44.1132 28.2089 42.6296 25.8685 40.5019C23.4467 38.3003 22.299 35.8719 22.299 34.418C22.299 34.0495 22.2167 33.7001 22.0696 33.3874C22.8247 32.0462 23.7627 30.8067 24.8627 29.7074ZM19.9 41.0522C19.8054 43.489 20.2369 45.9285 21.1777 48.2009C22.4615 51.3018 24.6362 53.9523 27.4266 55.8171C30.217 57.6819 33.4977 58.6772 36.8539 58.6772C39.6707 58.6772 42.4344 57.9761 44.8997 56.6482C44.0448 55.3249 43.0672 53.9641 41.9195 52.738C39.8016 50.4753 37.3671 48.9608 34.418 48.9608C29.7919 48.9608 25.5995 46.8088 22.6076 44.0888C21.6045 43.1769 20.6804 42.1481 19.9 41.0522Z" fill="white"/>
</svg>
