<svg width="74" height="88" viewBox="0 0 74 88" fill="none" xmlns="http://www.w3.org/2000/svg">
<path fill-rule="evenodd" clip-rule="evenodd" d="M36.9766 9.04796C21.4039 9.04796 8.77978 21.6721 8.77978 37.2447C8.77978 52.8174 21.4039 65.4415 36.9765 65.4415C52.5492 65.4415 65.1733 52.8174 65.1733 37.2447C65.1733 21.6721 52.5492 9.04796 36.9766 9.04796ZM73.953 37.2447C73.953 16.8232 57.3981 0.268279 36.9766 0.268278C16.555 0.268278 9.84585e-05 16.8232 9.75658e-05 37.2447C9.66732e-05 57.6663 16.555 74.2212 36.9765 74.2212C57.3981 74.2212 73.953 57.6663 73.953 37.2447Z" fill="#0052FF"/>
<path fill-rule="evenodd" clip-rule="evenodd" d="M45.1376 29.8538H29.5867L29.5867 45.4047L45.1376 45.4047L45.1376 29.8538ZM29.5867 21.0741C24.7378 21.0741 20.807 25.0049 20.807 29.8538V45.4047C20.807 50.2536 24.7378 54.1844 29.5867 54.1844H45.1376C49.9865 54.1844 53.9173 50.2536 53.9173 45.4047V29.8538C53.9173 25.0049 49.9865 21.0741 45.1376 21.0741H29.5867Z" fill="#0052FF"/>
<path fill-rule="evenodd" clip-rule="evenodd" d="M15.7326 83C15.7326 80.2925 17.9275 78.0976 20.635 78.0976L56.5862 78.0976C59.2937 78.0976 61.4886 80.2925 61.4886 83C61.4886 85.7075 59.2937 87.9024 56.5862 87.9024L20.635 87.9024C17.9275 87.9024 15.7326 85.7075 15.7326 83Z" fill="#0052FF"/>
</svg>
