<svg width="269" height="62" viewBox="0 0 269 62" fill="none" xmlns="http://www.w3.org/2000/svg">
<path fill-rule="evenodd" clip-rule="evenodd" d="M30.75 3.97022C29.5712 3.97022 28.6155 4.9259 28.6155 6.10478C28.6155 7.28366 29.5712 8.23933 30.75 8.23933C31.9289 8.23933 32.8846 7.28366 32.8846 6.10478C32.8846 4.9259 31.9289 3.97022 30.75 3.97022ZM36.8548 6.10478C36.8548 2.7332 34.1216 0 30.75 0C27.3785 0 24.6453 2.7332 24.6453 6.10478C24.6453 9.47635 27.3785 12.2096 30.75 12.2096C34.1216 12.2096 36.8548 9.47635 36.8548 6.10478ZM150.192 4.62933H140.518V46.0059H137.994V31.2332C137.994 26.9626 136.686 23.7815 134.072 21.6898C131.501 19.5545 127.906 18.4869 123.286 18.4869C119.495 18.4869 116.38 19.1187 113.939 20.3825C111.542 21.6026 109.778 23.1714 108.645 25.0888L113.939 29.7951C114.854 28.5314 115.944 27.5073 117.207 26.723C118.471 25.9386 120.127 25.5464 122.175 25.5464C124.398 25.5464 125.966 26.0693 126.882 27.1151C127.84 28.1174 128.32 29.6208 128.32 31.6254V33.3249H122.894C117.926 33.3249 114.157 34.1746 111.586 35.8742C109.015 37.5737 107.729 40.1883 107.729 43.718C107.729 46.8992 108.71 49.3831 110.671 51.1697C112.675 52.9128 115.312 53.7844 118.58 53.7844C121.195 53.7844 123.395 53.2179 125.182 52.0849C127.012 50.9519 128.232 49.2741 128.843 47.0517H129.169C129.387 48.9691 130.106 50.4507 131.326 51.4966C132.547 52.4988 134.159 53 136.164 53H140.518H141.72H150.192V46.8556H150.649C151.477 48.9037 152.676 50.5814 154.244 51.8888C155.813 53.1525 157.948 53.7844 160.65 53.7844C162.524 53.7844 164.223 53.4358 165.749 52.7385C167.317 52.0413 168.647 50.9736 169.736 49.5356C170.869 48.0976 171.741 46.2673 172.351 44.0449C172.555 43.3494 172.728 42.6134 172.868 41.8368C173.551 44.6963 174.808 47.11 176.639 49.078C179.559 52.2156 183.851 53.7844 189.516 53.7844C193.133 53.7844 196.118 53.1961 198.471 52.0195C200.825 50.8429 202.655 49.4484 203.962 47.8361L198.733 42.1493C197.687 43.413 196.445 44.4371 195.007 45.2215C193.569 45.9623 191.848 46.3327 189.843 46.3327C187.228 46.3327 185.246 45.679 183.895 44.3717C182.544 43.0208 181.868 41.2559 181.868 39.0771V38.4888H204.943V35.6127C204.943 32.9981 204.55 30.6449 203.766 28.5532C203.025 26.4179 201.958 24.6095 200.563 23.1278C199.169 21.6462 197.469 20.5132 195.465 19.7288C193.46 18.9009 191.194 18.4869 188.667 18.4869C186.139 18.4869 183.851 18.9009 181.803 19.7288C179.799 20.5132 178.077 21.6898 176.639 23.2586C175.245 24.7838 174.155 26.6576 173.371 28.88C173.188 29.4194 173.027 29.976 172.889 30.5501C172.745 29.7309 172.565 28.9563 172.351 28.2264C171.741 26.0039 170.869 24.1737 169.736 22.7356C168.647 21.2976 167.317 20.23 165.749 19.5327C164.223 18.8355 162.524 18.4869 160.65 18.4869C157.948 18.4869 155.813 19.1405 154.244 20.4478C152.676 21.7552 151.477 23.4111 150.649 25.4156H150.192V4.62933ZM161.5 44.3063C160.323 45.6137 158.646 46.2673 156.467 46.2673C154.767 46.2673 153.286 45.8533 152.022 45.0254C150.802 44.1974 150.192 42.8901 150.192 41.1034V31.1678C150.192 29.3812 150.802 28.0738 152.022 27.2459C153.286 26.4179 154.767 26.0039 156.467 26.0039C158.646 26.0039 160.323 26.6794 161.5 28.0303C162.676 29.3376 163.265 31.1678 163.265 33.521V38.7503C163.265 41.1034 162.676 42.9555 161.5 44.3063ZM96.5121 15.4147V53H86.7072V15.4147H73.5687V7.37469H109.651V15.4147H96.5121ZM122.241 47.4439C123.94 47.4439 125.378 47.0299 126.555 46.202C127.731 45.374 128.32 44.1756 128.32 42.6068V38.5542H123.156C119.19 38.5542 117.207 39.8833 117.207 42.5415V43.8488C117.207 45.0254 117.665 45.9187 118.58 46.5288C119.495 47.1389 120.715 47.4439 122.241 47.4439ZM188.732 25.4156C186.64 25.4156 184.962 26.0693 183.699 27.3766C182.479 28.6404 181.868 30.3616 181.868 32.5405V33.0634H195.465V32.5405C195.465 30.3181 194.854 28.575 193.634 27.3112C192.458 26.0475 190.824 25.4156 188.732 25.4156ZM213.938 45.4829H206.159V53H234.724V45.4829H223.612V35.482C223.612 33.4338 224.222 31.7125 225.442 30.3181C226.662 28.88 228.471 28.161 230.867 28.161H237.64V41.1034C237.64 43.1515 237.901 44.96 238.424 46.5288C238.991 48.0976 239.753 49.4267 240.712 50.5161C241.671 51.6055 242.825 52.4335 244.176 53C245.527 53.5229 247.009 53.7844 248.621 53.7844C251.323 53.7844 253.458 53.1089 255.027 51.758C256.639 50.4071 257.816 48.773 258.557 46.8556H258.949V53H268.623V19.2713H258.949V41.4303C258.949 42.2582 258.775 42.9772 258.426 43.5873C258.077 44.1974 257.62 44.7203 257.053 45.1561C256.53 45.5483 255.899 45.8533 255.158 46.0712C254.461 46.2455 253.742 46.3327 253.001 46.3327C249.21 46.3327 247.314 44.1538 247.314 39.7961V19.2713H238.058H237.64H234.855C233.199 19.2713 231.761 19.5327 230.54 20.0557C229.32 20.5786 228.274 21.2976 227.403 22.2127C226.575 23.0843 225.878 24.1083 225.311 25.2849C224.788 26.4179 224.374 27.5945 224.069 28.8147H223.612V19.2713H206.159V26.7883H213.938V45.4829ZM30.9654 17.9886C23.9234 17.9886 18.2147 23.6973 18.2147 30.7393C18.2147 37.7814 23.9234 43.4901 30.9654 43.4901C38.0074 43.4901 43.7161 37.7814 43.7161 30.7393C43.7161 23.6973 38.0074 17.9886 30.9654 17.9886ZM47.6864 30.7393C47.6864 21.5046 40.2001 14.0184 30.9654 14.0184C21.7307 14.0184 14.2444 21.5046 14.2444 30.7393C14.2444 39.9741 21.7307 47.4603 30.9654 47.4603C40.2001 47.4603 47.6864 39.9741 47.6864 30.7393ZM25.9022 30.75C25.9022 27.9478 28.1739 25.6761 30.9761 25.6761C33.7783 25.6761 36.05 27.9478 36.05 30.75C36.05 33.5522 33.7783 35.8239 30.9761 35.8239C28.1739 35.8239 25.9022 33.5522 25.9022 30.75ZM30.9761 21.7059C35.971 21.7059 40.0202 25.7551 40.0202 30.75C40.0202 35.7449 35.971 39.7941 30.9761 39.7941C25.9812 39.7941 21.932 35.7449 21.932 30.75C21.932 25.7551 25.9812 21.7059 30.9761 21.7059ZM28.6155 55.3952C28.6155 54.2163 29.5712 53.2606 30.75 53.2606C31.9289 53.2606 32.8846 54.2163 32.8846 55.3952C32.8846 56.5741 31.9289 57.5297 30.75 57.5297C29.5712 57.5297 28.6155 56.5741 28.6155 55.3952ZM30.75 49.2904C34.1216 49.2904 36.8548 52.0236 36.8548 55.3952C36.8548 58.7668 34.1216 61.5 30.75 61.5C27.3785 61.5 24.6453 58.7668 24.6453 55.3952C24.6453 52.0236 27.3785 49.2904 30.75 49.2904ZM11.8137 11.8139C10.9801 12.6475 10.9801 13.999 11.8137 14.8326C12.6473 15.6662 13.9988 15.6662 14.8324 14.8326C15.666 13.999 15.666 12.6475 14.8324 11.8139C13.9988 10.9803 12.6473 10.9803 11.8137 11.8139ZM17.6398 9.00649C15.2557 6.62242 11.3904 6.62242 9.00635 9.00649C6.62229 11.3906 6.62229 15.2559 9.00635 17.6399C11.3904 20.024 15.2557 20.024 17.6398 17.6399C20.0239 15.2559 20.0239 11.3906 17.6398 9.00649ZM46.6675 49.6862C45.8339 48.8526 45.8339 47.501 46.6675 46.6674C47.5011 45.8338 48.8526 45.8338 49.6862 46.6674C50.5198 47.501 50.5198 48.8526 49.6862 49.6862C48.8526 50.5197 47.5011 50.5197 46.6675 49.6862ZM43.8601 43.8601C46.2442 41.476 50.1095 41.476 52.4936 43.8601C54.8776 46.2441 54.8776 50.1095 52.4936 52.4935C50.1095 54.8776 46.2442 54.8776 43.8601 52.4935C41.476 50.1095 41.476 46.2441 43.8601 43.8601ZM49.6862 11.8138C48.8526 10.9802 47.501 10.9802 46.6674 11.8138C45.8339 12.6474 45.8339 13.9989 46.6674 14.8325C47.501 15.6661 48.8526 15.6661 49.6862 14.8325C50.5198 13.9989 50.5198 12.6474 49.6862 11.8138ZM52.4935 17.6399C54.8776 15.2558 54.8776 11.3905 52.4935 9.00645C50.1095 6.62239 46.2441 6.62239 43.8601 9.00645C41.476 11.3905 41.476 15.2558 43.8601 17.6399C46.2441 20.024 50.1095 20.024 52.4935 17.6399ZM11.8138 46.6675C12.6474 45.8339 13.9989 45.8339 14.8325 46.6675C15.6661 47.5011 15.6661 48.8526 14.8325 49.6862C13.9989 50.5198 12.6474 50.5198 11.8138 49.6862C10.9802 48.8526 10.9802 47.5011 11.8138 46.6675ZM17.6399 43.8601C20.024 46.2442 20.024 50.1095 17.6399 52.4935C15.2558 54.8776 11.3905 54.8776 9.00644 52.4935C6.62237 50.1095 6.62237 46.2442 9.00644 43.8601C11.3905 41.476 15.2558 41.476 17.6399 43.8601ZM57.5297 30.75C57.5297 29.5711 56.5741 28.6154 55.3952 28.6154C54.2163 28.6154 53.2606 29.5711 53.2606 30.75C53.2606 31.9288 54.2163 32.8845 55.3952 32.8845C56.5741 32.8845 57.5297 31.9288 57.5297 30.75ZM55.3952 36.8547C58.7668 36.8547 61.5 34.1215 61.5 30.75C61.5 27.3784 58.7668 24.6452 55.3952 24.6452C52.0236 24.6452 49.2904 27.3784 49.2904 30.75C49.2904 34.1215 52.0236 36.8547 55.3952 36.8547ZM6.10478 28.6154C7.28366 28.6154 8.23933 29.5711 8.23933 30.75C8.23933 31.9288 7.28366 32.8845 6.10478 32.8845C4.9259 32.8845 3.97022 31.9288 3.97022 30.75C3.97022 29.5711 4.9259 28.6154 6.10478 28.6154ZM12.2096 30.75C12.2096 34.1215 9.47635 36.8547 6.10478 36.8547C2.7332 36.8547 -2.94753e-07 34.1215 0 30.75C2.94753e-07 27.3784 2.7332 24.6452 6.10478 24.6452C9.47636 24.6452 12.2096 27.3784 12.2096 30.75Z" fill="#0052FF"/>
</svg>
