<svg width="376" height="88" viewBox="0 0 376 88" fill="none" xmlns="http://www.w3.org/2000/svg">
<path fill-rule="evenodd" clip-rule="evenodd" d="M8.77978 37.2447C8.77978 21.6721 21.4039 9.04796 36.9766 9.04796C52.5492 9.04796 65.1733 21.6721 65.1733 37.2447C65.1733 52.8174 52.5492 65.4415 36.9765 65.4415C21.4039 65.4415 8.77978 52.8174 8.77978 37.2447ZM36.9766 0.268278C57.3981 0.268279 73.953 16.8232 73.953 37.2447C73.953 57.6663 57.3981 74.2212 36.9765 74.2212C16.555 74.2212 9.66732e-05 57.6663 9.75658e-05 37.2447C9.84585e-05 16.8232 16.555 0.268278 36.9766 0.268278ZM107.375 18.3747H123.39C127.879 18.3747 131.299 19.4641 133.653 21.643C136.049 23.8218 137.248 26.7851 137.248 30.5327C137.248 33.1474 136.594 35.2391 135.287 36.8078C134.023 38.333 132.193 39.4443 129.796 40.1415V40.5337C132.628 41.2309 134.807 42.4511 136.333 44.1942C137.901 45.9373 138.686 48.3558 138.686 51.4498C138.686 55.2845 137.466 58.335 135.025 60.601C132.628 62.867 129.251 64 124.894 64H107.375V18.3747ZM121.887 57.1366C124.24 57.1366 125.961 56.7444 127.051 55.96C128.14 55.1756 128.685 53.7376 128.685 51.6459V49.7503C128.685 47.6586 128.14 46.2205 127.051 45.4361C125.961 44.6517 124.24 44.2595 121.887 44.2595H116.919V57.1366H121.887ZM120.645 37.723C122.954 37.723 124.632 37.3526 125.678 36.6117C126.724 35.8274 127.247 34.4329 127.247 32.4283V30.4674C127.247 28.4628 126.724 27.0901 125.678 26.3493C124.632 25.6085 122.954 25.2381 120.645 25.2381H116.919V37.723H120.645ZM173.369 64C171.365 64 169.752 63.4988 168.532 62.4966C167.312 61.4507 166.593 59.9691 166.375 58.0517H166.048C165.438 60.2741 164.218 61.9519 162.388 63.0849C160.601 64.2179 158.401 64.7844 155.786 64.7844C152.518 64.7844 149.881 63.9128 147.877 62.1697C145.916 60.3831 144.935 57.8992 144.935 54.718C144.935 51.1883 146.221 48.5737 148.792 46.8742C151.363 45.1746 155.132 44.3249 160.1 44.3249H165.525V42.6254C165.525 40.6208 165.046 39.1174 164.087 38.1152C163.172 37.0693 161.604 36.5464 159.381 36.5464C157.333 36.5464 155.677 36.9386 154.413 37.723C153.15 38.5073 152.06 39.5314 151.145 40.7951L145.85 36.0888C146.983 34.1714 148.748 32.6026 151.145 31.3825C153.585 30.1187 156.701 29.4869 160.492 29.4869C165.111 29.4869 168.707 30.5545 171.278 32.6898C173.892 34.7815 175.2 37.9626 175.2 42.2332V57.0059H178.925V64H173.369ZM159.446 58.4439C161.146 58.4439 162.584 58.0299 163.761 57.202C164.937 56.374 165.525 55.1756 165.525 53.6068V49.5542H160.362C156.396 49.5542 154.413 50.8833 154.413 53.5415V54.8488C154.413 56.0254 154.871 56.9187 155.786 57.5288C156.701 58.1389 157.921 58.4439 159.446 58.4439ZM190.143 63.0849C192.932 64.2179 196.2 64.7844 199.948 64.7844C204.959 64.7844 208.816 63.7603 211.517 61.7122C214.263 59.6641 215.635 56.8751 215.635 53.3454C215.635 51.733 215.352 50.3603 214.786 49.2273C214.219 48.0943 213.435 47.1356 212.433 46.3512C211.474 45.5668 210.341 44.9568 209.034 44.521C207.726 44.0416 206.31 43.693 204.785 43.4751L199.425 42.6254C198.117 42.4075 197.093 42.1242 196.353 41.7756C195.612 41.3834 195.241 40.6862 195.241 39.6839C195.241 37.4179 197.115 36.2849 200.863 36.2849C203.085 36.2849 204.981 36.6553 206.55 37.3961C208.118 38.1369 209.404 39.0521 210.406 40.1415L215.243 34.6508C213.849 32.9948 211.975 31.7311 209.622 30.8596C207.312 29.9444 204.501 29.4869 201.19 29.4869C196.309 29.4869 192.518 30.4891 189.816 32.4937C187.114 34.4982 185.763 37.2654 185.763 40.7951C185.763 42.4075 186.047 43.7802 186.613 44.9132C187.18 46.0462 187.942 47.0049 188.901 47.7893C189.86 48.5737 190.993 49.2055 192.3 49.6849C193.607 50.1207 195.023 50.4475 196.549 50.6654L201.974 51.5151C203.281 51.733 204.305 52.0381 205.046 52.4303C205.787 52.7789 206.157 53.4325 206.157 54.3912C206.157 55.6114 205.613 56.5265 204.523 57.1366C203.434 57.7031 201.93 57.9863 200.013 57.9863C197.747 57.9863 195.721 57.5941 193.934 56.8098C192.191 55.9818 190.666 54.8488 189.358 53.4107L183.933 58.4439C185.328 60.4049 187.397 61.9519 190.143 63.0849ZM240.449 64.7844C234.784 64.7844 230.492 63.2156 227.572 60.078C224.652 56.9405 223.192 52.6699 223.192 47.2664C223.192 44.521 223.563 42.0589 224.304 39.88C225.088 37.6576 226.177 35.7838 227.572 34.2586C229.01 32.6898 230.731 31.5132 232.736 30.7288C234.784 29.9009 237.072 29.4869 239.599 29.4869C242.127 29.4869 244.393 29.9009 246.397 30.7288C248.402 31.5132 250.101 32.6462 251.496 34.1278C252.89 35.6095 253.958 37.4179 254.699 39.5532C255.483 41.6449 255.875 43.9981 255.875 46.6127V49.4888H232.801V50.0771C232.801 52.2559 233.477 54.0208 234.827 55.3717C236.178 56.679 238.161 57.3327 240.776 57.3327C242.78 57.3327 244.502 56.9623 245.94 56.2215C247.378 55.4371 248.62 54.413 249.665 53.1493L254.895 58.8361C253.587 60.4484 251.757 61.8429 249.404 63.0195C247.051 64.1961 244.066 64.7844 240.449 64.7844ZM239.665 36.4156C237.573 36.4156 235.895 37.0693 234.631 38.3766C233.411 39.6404 232.801 41.3616 232.801 43.5405V44.0634H246.397V43.5405C246.397 41.3181 245.787 39.575 244.567 38.3112C243.39 37.0475 241.756 36.4156 239.665 36.4156ZM264.086 18.3747V64H273.956V47.3971H281.735C283.957 47.3971 285.94 47.0703 287.683 46.4166C289.426 45.7194 290.886 44.7389 292.062 43.4751C293.282 42.2114 294.198 40.6862 294.808 38.8995C295.418 37.1129 295.723 35.1083 295.723 32.8859C295.723 30.6635 295.418 28.6589 294.808 26.8722C294.198 25.0856 293.282 23.5604 292.062 22.2966C290.886 21.0329 289.426 20.0742 287.683 19.4205C285.94 18.7233 283.957 18.3747 281.735 18.3747H264.086ZM279.251 39.4878H273.956V26.284H279.251C281.56 26.284 283.151 26.7197 284.022 27.5913C284.937 28.4628 285.395 29.9009 285.395 31.9054V33.8664C285.395 35.8709 284.937 37.309 284.022 38.1805C283.151 39.0521 281.56 39.4878 279.251 39.4878ZM330.145 64C328.14 64 326.528 63.4988 325.308 62.4966C324.088 61.4507 323.369 59.9691 323.151 58.0517H322.824C322.214 60.2741 320.994 61.9519 319.164 63.0849C317.377 64.2179 315.176 64.7844 312.562 64.7844C309.293 64.7844 306.657 63.9128 304.652 62.1697C302.691 60.3831 301.711 57.8992 301.711 54.718C301.711 51.1883 302.996 48.5737 305.568 46.8742C308.139 45.1746 311.908 44.3249 316.876 44.3249H322.301V42.6254C322.301 40.6208 321.822 39.1174 320.863 38.1152C319.948 37.0693 318.379 36.5464 316.157 36.5464C314.109 36.5464 312.453 36.9386 311.189 37.723C309.925 38.5073 308.836 39.5314 307.921 40.7951L302.626 36.0888C303.759 34.1714 305.524 32.6026 307.921 31.3825C310.361 30.1187 313.477 29.4869 317.268 29.4869C321.887 29.4869 325.482 30.5545 328.053 32.6898C330.668 34.7815 331.975 37.9626 331.975 42.2332V57.0059H335.701V64H330.145ZM316.222 58.4439C317.922 58.4439 319.36 58.0299 320.536 57.202C321.713 56.374 322.301 55.1756 322.301 53.6068V49.5542H317.137C313.172 49.5542 311.189 50.8833 311.189 53.5415V54.8488C311.189 56.0254 311.647 56.9187 312.562 57.5288C313.477 58.1389 314.697 58.4439 316.222 58.4439ZM375.483 30.2713H365.613L360.58 44.4556L357.638 54.2605H357.116L354.043 44.4556L349.141 30.2713H338.748L352.344 63.8039L350.252 69.5561H342.147V77.0731H348.814C351.69 77.0731 353.956 76.4195 355.612 75.1122C357.268 73.8048 358.597 71.9092 359.599 69.4253L375.483 30.2713ZM45.1376 29.8538H29.5867L29.5867 45.4047L45.1376 45.4047L45.1376 29.8538ZM29.5867 21.0741C24.7378 21.0741 20.807 25.0049 20.807 29.8538V45.4047C20.807 50.2536 24.7378 54.1844 29.5867 54.1844H45.1376C49.9865 54.1844 53.9173 50.2536 53.9173 45.4047V29.8538C53.9173 25.0049 49.9865 21.0741 45.1376 21.0741H29.5867ZM20.635 78.0976C17.9275 78.0976 15.7326 80.2925 15.7326 83C15.7326 85.7075 17.9275 87.9024 20.635 87.9024L56.5862 87.9024C59.2937 87.9024 61.4886 85.7075 61.4886 83C61.4886 80.2924 59.2937 78.0976 56.5862 78.0976H20.635Z" fill="#0052FF"/>
</svg>
